<mxfile host="app.diagrams.net" modified="2022-07-08T09:58:38.818Z" agent="5.0 (Macintosh; Intel Mac OS X 10_15_7) AppleWebKit/537.36 (KHTML, like Gecko) Chrome/103.0.5060.53 Safari/537.36" etag="UOM8Uot6kOI11zeU-sZ0" version="20.0.4" type="github">
  <diagram id="C5RBs43oDa-KdzZeNtuy" name="Page-1">
    <mxGraphModel dx="946" dy="1762" grid="1" gridSize="10" guides="1" tooltips="1" connect="1" arrows="1" fold="1" page="1" pageScale="1" pageWidth="827" pageHeight="1169" math="0" shadow="0">
      <root>
        <mxCell id="WIyWlLk6GJQsqaUBKTNV-0" />
        <mxCell id="WIyWlLk6GJQsqaUBKTNV-1" parent="WIyWlLk6GJQsqaUBKTNV-0" />
        <mxCell id="p6B5cSZv_JR1WM5m22Rt-24" style="edgeStyle=orthogonalEdgeStyle;rounded=0;orthogonalLoop=1;jettySize=auto;html=1;fontSize=12;" parent="WIyWlLk6GJQsqaUBKTNV-1" source="WIyWlLk6GJQsqaUBKTNV-3" target="p6B5cSZv_JR1WM5m22Rt-22" edge="1">
          <mxGeometry relative="1" as="geometry" />
        </mxCell>
        <mxCell id="WIyWlLk6GJQsqaUBKTNV-3" value="A contributor with 42 TelediskoTokens was a contributor at the time of the snapshot" style="rounded=1;whiteSpace=wrap;html=1;fontSize=12;glass=0;strokeWidth=1;shadow=0;" parent="WIyWlLk6GJQsqaUBKTNV-1" vertex="1">
          <mxGeometry x="346" y="90" width="136" height="70" as="geometry" />
        </mxCell>
        <mxCell id="p6B5cSZv_JR1WM5m22Rt-0" value="&lt;font style=&quot;font-size: 24px;&quot;&gt;Voting&lt;/font&gt;" style="text;html=1;strokeColor=none;fillColor=none;align=center;verticalAlign=middle;whiteSpace=wrap;rounded=0;" parent="WIyWlLk6GJQsqaUBKTNV-1" vertex="1">
          <mxGeometry x="384" y="-120" width="60" height="30" as="geometry" />
        </mxCell>
        <mxCell id="p6B5cSZv_JR1WM5m22Rt-7" value="" style="edgeStyle=orthogonalEdgeStyle;rounded=0;orthogonalLoop=1;jettySize=auto;html=1;fontSize=24;" parent="WIyWlLk6GJQsqaUBKTNV-1" source="p6B5cSZv_JR1WM5m22Rt-3" edge="1">
          <mxGeometry relative="1" as="geometry">
            <mxPoint x="566" y="335" as="targetPoint" />
          </mxGeometry>
        </mxCell>
        <mxCell id="p6B5cSZv_JR1WM5m22Rt-11" value="&lt;font style=&quot;font-size: 12px;&quot;&gt;Yes&lt;/font&gt;" style="edgeLabel;html=1;align=center;verticalAlign=middle;resizable=0;points=[];fontSize=24;" parent="p6B5cSZv_JR1WM5m22Rt-7" vertex="1" connectable="0">
          <mxGeometry x="-0.2326" y="1" relative="1" as="geometry">
            <mxPoint y="1" as="offset" />
          </mxGeometry>
        </mxCell>
        <mxCell id="7JPFYaJkHymQc1CVauYX-1" style="edgeStyle=orthogonalEdgeStyle;rounded=0;orthogonalLoop=1;jettySize=auto;html=1;fontSize=12;" edge="1" parent="WIyWlLk6GJQsqaUBKTNV-1" source="p6B5cSZv_JR1WM5m22Rt-3" target="7JPFYaJkHymQc1CVauYX-0">
          <mxGeometry relative="1" as="geometry" />
        </mxCell>
        <mxCell id="7JPFYaJkHymQc1CVauYX-2" value="No" style="edgeLabel;html=1;align=center;verticalAlign=middle;resizable=0;points=[];fontSize=12;" vertex="1" connectable="0" parent="7JPFYaJkHymQc1CVauYX-1">
          <mxGeometry x="-0.2222" y="-1" relative="1" as="geometry">
            <mxPoint as="offset" />
          </mxGeometry>
        </mxCell>
        <mxCell id="p6B5cSZv_JR1WM5m22Rt-3" value="Is the contributor &lt;br&gt;willing to vote?" style="rhombus;whiteSpace=wrap;html=1;rounded=1;glass=0;strokeWidth=1;shadow=0;fillColor=#fff2cc;strokeColor=#d6b656;" parent="WIyWlLk6GJQsqaUBKTNV-1" vertex="1">
          <mxGeometry x="348" y="330" width="132" height="130" as="geometry" />
        </mxCell>
        <mxCell id="p6B5cSZv_JR1WM5m22Rt-19" style="edgeStyle=orthogonalEdgeStyle;rounded=0;orthogonalLoop=1;jettySize=auto;html=1;entryX=0.5;entryY=0;entryDx=0;entryDy=0;fontSize=12;" parent="WIyWlLk6GJQsqaUBKTNV-1" source="p6B5cSZv_JR1WM5m22Rt-10" target="p6B5cSZv_JR1WM5m22Rt-17" edge="1">
          <mxGeometry relative="1" as="geometry" />
        </mxCell>
        <mxCell id="p6B5cSZv_JR1WM5m22Rt-10" value="The contributor votes" style="rounded=1;whiteSpace=wrap;html=1;fontSize=12;glass=0;strokeWidth=1;shadow=0;" parent="WIyWlLk6GJQsqaUBKTNV-1" vertex="1">
          <mxGeometry x="570" y="300" width="136" height="70" as="geometry" />
        </mxCell>
        <mxCell id="p6B5cSZv_JR1WM5m22Rt-26" style="edgeStyle=orthogonalEdgeStyle;rounded=0;orthogonalLoop=1;jettySize=auto;html=1;entryX=0.5;entryY=0;entryDx=0;entryDy=0;fontSize=12;" parent="WIyWlLk6GJQsqaUBKTNV-1" source="p6B5cSZv_JR1WM5m22Rt-16" target="p6B5cSZv_JR1WM5m22Rt-25" edge="1">
          <mxGeometry relative="1" as="geometry" />
        </mxCell>
        <mxCell id="p6B5cSZv_JR1WM5m22Rt-16" value="The resolution obtains 42 YES votes" style="rounded=1;whiteSpace=wrap;html=1;fontSize=12;glass=0;strokeWidth=1;shadow=0;" parent="WIyWlLk6GJQsqaUBKTNV-1" vertex="1">
          <mxGeometry x="568" y="620" width="136" height="70" as="geometry" />
        </mxCell>
        <mxCell id="p6B5cSZv_JR1WM5m22Rt-18" style="edgeStyle=orthogonalEdgeStyle;rounded=0;orthogonalLoop=1;jettySize=auto;html=1;entryX=0.5;entryY=0;entryDx=0;entryDy=0;fontSize=12;" parent="WIyWlLk6GJQsqaUBKTNV-1" source="p6B5cSZv_JR1WM5m22Rt-17" target="p6B5cSZv_JR1WM5m22Rt-16" edge="1">
          <mxGeometry relative="1" as="geometry" />
        </mxCell>
        <mxCell id="p6B5cSZv_JR1WM5m22Rt-38" value="Yes" style="edgeLabel;html=1;align=center;verticalAlign=middle;resizable=0;points=[];fontSize=12;" parent="p6B5cSZv_JR1WM5m22Rt-18" vertex="1" connectable="0">
          <mxGeometry x="-0.25" y="-1" relative="1" as="geometry">
            <mxPoint as="offset" />
          </mxGeometry>
        </mxCell>
        <mxCell id="p6B5cSZv_JR1WM5m22Rt-20" style="edgeStyle=orthogonalEdgeStyle;rounded=0;orthogonalLoop=1;jettySize=auto;html=1;fontSize=12;entryX=0.5;entryY=0;entryDx=0;entryDy=0;" parent="WIyWlLk6GJQsqaUBKTNV-1" source="p6B5cSZv_JR1WM5m22Rt-17" target="p6B5cSZv_JR1WM5m22Rt-21" edge="1">
          <mxGeometry relative="1" as="geometry">
            <mxPoint x="800" y="620" as="targetPoint" />
          </mxGeometry>
        </mxCell>
        <mxCell id="p6B5cSZv_JR1WM5m22Rt-37" value="No" style="edgeLabel;html=1;align=center;verticalAlign=middle;resizable=0;points=[];fontSize=12;" parent="p6B5cSZv_JR1WM5m22Rt-20" vertex="1" connectable="0">
          <mxGeometry x="-0.6712" relative="1" as="geometry">
            <mxPoint y="1" as="offset" />
          </mxGeometry>
        </mxCell>
        <mxCell id="p6B5cSZv_JR1WM5m22Rt-17" value="Is the vote YES?" style="rhombus;whiteSpace=wrap;html=1;rounded=1;glass=0;strokeWidth=1;shadow=0;fillColor=#fff2cc;strokeColor=#d6b656;" parent="WIyWlLk6GJQsqaUBKTNV-1" vertex="1">
          <mxGeometry x="572" y="430" width="132" height="130" as="geometry" />
        </mxCell>
        <mxCell id="p6B5cSZv_JR1WM5m22Rt-27" style="edgeStyle=orthogonalEdgeStyle;rounded=0;orthogonalLoop=1;jettySize=auto;html=1;entryX=1;entryY=0.5;entryDx=0;entryDy=0;fontSize=12;exitX=0.5;exitY=1;exitDx=0;exitDy=0;" parent="WIyWlLk6GJQsqaUBKTNV-1" source="p6B5cSZv_JR1WM5m22Rt-21" target="p6B5cSZv_JR1WM5m22Rt-25" edge="1">
          <mxGeometry relative="1" as="geometry" />
        </mxCell>
        <mxCell id="p6B5cSZv_JR1WM5m22Rt-21" value="The resolution obtains 42 NO votes" style="rounded=1;whiteSpace=wrap;html=1;fontSize=12;glass=0;strokeWidth=1;shadow=0;" parent="WIyWlLk6GJQsqaUBKTNV-1" vertex="1">
          <mxGeometry x="730" y="620" width="136" height="70" as="geometry" />
        </mxCell>
        <mxCell id="p6B5cSZv_JR1WM5m22Rt-23" style="edgeStyle=orthogonalEdgeStyle;rounded=0;orthogonalLoop=1;jettySize=auto;html=1;fontSize=12;" parent="WIyWlLk6GJQsqaUBKTNV-1" source="p6B5cSZv_JR1WM5m22Rt-22" target="p6B5cSZv_JR1WM5m22Rt-3" edge="1">
          <mxGeometry relative="1" as="geometry" />
        </mxCell>
        <mxCell id="p6B5cSZv_JR1WM5m22Rt-22" value="Total DAO voting power is 100" style="rounded=1;whiteSpace=wrap;html=1;fontSize=12;glass=0;strokeWidth=1;shadow=0;" parent="WIyWlLk6GJQsqaUBKTNV-1" vertex="1">
          <mxGeometry x="346" y="210" width="136" height="70" as="geometry" />
        </mxCell>
        <mxCell id="p6B5cSZv_JR1WM5m22Rt-43" style="edgeStyle=orthogonalEdgeStyle;rounded=0;orthogonalLoop=1;jettySize=auto;html=1;fontSize=12;entryX=0.5;entryY=0;entryDx=0;entryDy=0;" parent="WIyWlLk6GJQsqaUBKTNV-1" source="p6B5cSZv_JR1WM5m22Rt-25" target="p6B5cSZv_JR1WM5m22Rt-46" edge="1">
          <mxGeometry relative="1" as="geometry">
            <mxPoint x="626" y="920" as="targetPoint" />
          </mxGeometry>
        </mxCell>
        <mxCell id="p6B5cSZv_JR1WM5m22Rt-45" value="Yes" style="edgeLabel;html=1;align=center;verticalAlign=middle;resizable=0;points=[];fontSize=12;" parent="p6B5cSZv_JR1WM5m22Rt-43" vertex="1" connectable="0">
          <mxGeometry x="-0.4853" y="1" relative="1" as="geometry">
            <mxPoint y="1" as="offset" />
          </mxGeometry>
        </mxCell>
        <mxCell id="p6B5cSZv_JR1WM5m22Rt-25" value="Is the resolution&lt;br&gt;&amp;nbsp;over?" style="rhombus;whiteSpace=wrap;html=1;rounded=1;glass=0;strokeWidth=1;shadow=0;fillColor=#fff2cc;strokeColor=#d6b656;" parent="WIyWlLk6GJQsqaUBKTNV-1" vertex="1">
          <mxGeometry x="560" y="740" width="152" height="140" as="geometry" />
        </mxCell>
        <mxCell id="p6B5cSZv_JR1WM5m22Rt-36" value="The resolution passes" style="rounded=1;whiteSpace=wrap;html=1;fontSize=12;glass=0;strokeWidth=1;shadow=0;" parent="WIyWlLk6GJQsqaUBKTNV-1" vertex="1">
          <mxGeometry x="360" y="975" width="136" height="70" as="geometry" />
        </mxCell>
        <mxCell id="p6B5cSZv_JR1WM5m22Rt-41" style="edgeStyle=orthogonalEdgeStyle;rounded=0;orthogonalLoop=1;jettySize=auto;html=1;entryX=0;entryY=0.5;entryDx=0;entryDy=0;fontSize=12;exitX=0;exitY=0.5;exitDx=0;exitDy=0;" parent="WIyWlLk6GJQsqaUBKTNV-1" source="p6B5cSZv_JR1WM5m22Rt-25" target="p6B5cSZv_JR1WM5m22Rt-3" edge="1">
          <mxGeometry relative="1" as="geometry">
            <Array as="points">
              <mxPoint x="220" y="810" />
              <mxPoint x="220" y="395" />
            </Array>
          </mxGeometry>
        </mxCell>
        <mxCell id="p6B5cSZv_JR1WM5m22Rt-42" value="No" style="edgeLabel;html=1;align=center;verticalAlign=middle;resizable=0;points=[];fontSize=12;" parent="p6B5cSZv_JR1WM5m22Rt-41" vertex="1" connectable="0">
          <mxGeometry x="-0.1562" y="2" relative="1" as="geometry">
            <mxPoint as="offset" />
          </mxGeometry>
        </mxCell>
        <mxCell id="p6B5cSZv_JR1WM5m22Rt-47" style="edgeStyle=orthogonalEdgeStyle;rounded=0;orthogonalLoop=1;jettySize=auto;html=1;fontSize=12;entryX=0;entryY=0.5;entryDx=0;entryDy=0;" parent="WIyWlLk6GJQsqaUBKTNV-1" source="p6B5cSZv_JR1WM5m22Rt-46" target="p6B5cSZv_JR1WM5m22Rt-48" edge="1">
          <mxGeometry relative="1" as="geometry">
            <mxPoint x="740" y="1010" as="targetPoint" />
          </mxGeometry>
        </mxCell>
        <mxCell id="p6B5cSZv_JR1WM5m22Rt-51" value="No" style="edgeLabel;html=1;align=center;verticalAlign=middle;resizable=0;points=[];fontSize=12;" parent="p6B5cSZv_JR1WM5m22Rt-47" vertex="1" connectable="0">
          <mxGeometry x="-0.2857" y="1" relative="1" as="geometry">
            <mxPoint as="offset" />
          </mxGeometry>
        </mxCell>
        <mxCell id="p6B5cSZv_JR1WM5m22Rt-49" style="edgeStyle=orthogonalEdgeStyle;rounded=0;orthogonalLoop=1;jettySize=auto;html=1;entryX=1;entryY=0.5;entryDx=0;entryDy=0;fontSize=12;" parent="WIyWlLk6GJQsqaUBKTNV-1" source="p6B5cSZv_JR1WM5m22Rt-46" target="p6B5cSZv_JR1WM5m22Rt-36" edge="1">
          <mxGeometry relative="1" as="geometry" />
        </mxCell>
        <mxCell id="p6B5cSZv_JR1WM5m22Rt-50" value="Yes" style="edgeLabel;html=1;align=center;verticalAlign=middle;resizable=0;points=[];fontSize=12;" parent="p6B5cSZv_JR1WM5m22Rt-49" vertex="1" connectable="0">
          <mxGeometry x="0.0741" y="1" relative="1" as="geometry">
            <mxPoint as="offset" />
          </mxGeometry>
        </mxCell>
        <mxCell id="p6B5cSZv_JR1WM5m22Rt-46" value="Are there enough YES to reach the quorum?" style="rhombus;whiteSpace=wrap;html=1;rounded=1;glass=0;strokeWidth=1;shadow=0;fillColor=#fff2cc;strokeColor=#d6b656;" parent="WIyWlLk6GJQsqaUBKTNV-1" vertex="1">
          <mxGeometry x="560" y="940" width="152" height="140" as="geometry" />
        </mxCell>
        <mxCell id="p6B5cSZv_JR1WM5m22Rt-48" value="The resolution does not pass" style="rounded=1;whiteSpace=wrap;html=1;fontSize=12;glass=0;strokeWidth=1;shadow=0;" parent="WIyWlLk6GJQsqaUBKTNV-1" vertex="1">
          <mxGeometry x="760" y="975" width="136" height="70" as="geometry" />
        </mxCell>
        <mxCell id="p6B5cSZv_JR1WM5m22Rt-98" style="edgeStyle=orthogonalEdgeStyle;rounded=0;orthogonalLoop=1;jettySize=auto;html=1;fontSize=12;" parent="WIyWlLk6GJQsqaUBKTNV-1" source="p6B5cSZv_JR1WM5m22Rt-70" target="WIyWlLk6GJQsqaUBKTNV-3" edge="1">
          <mxGeometry relative="1" as="geometry" />
        </mxCell>
        <mxCell id="p6B5cSZv_JR1WM5m22Rt-70" value="A new draft resolution is approved and a snapshot of delegations and voting powers is taken&amp;nbsp;" style="rounded=1;whiteSpace=wrap;html=1;fontSize=12;glass=0;strokeWidth=1;shadow=0;fillColor=#d5e8d4;strokeColor=#82b366;" parent="WIyWlLk6GJQsqaUBKTNV-1" vertex="1">
          <mxGeometry x="342" y="-50" width="144" height="80" as="geometry" />
        </mxCell>
        <mxCell id="p6B5cSZv_JR1WM5m22Rt-99" value="&lt;font style=&quot;font-size: 24px;&quot;&gt;Delegation&lt;/font&gt;" style="text;html=1;strokeColor=none;fillColor=none;align=center;verticalAlign=middle;whiteSpace=wrap;rounded=0;" parent="WIyWlLk6GJQsqaUBKTNV-1" vertex="1">
          <mxGeometry x="1120" y="-120" width="60" height="30" as="geometry" />
        </mxCell>
        <mxCell id="p6B5cSZv_JR1WM5m22Rt-102" value="" style="edgeStyle=orthogonalEdgeStyle;rounded=0;orthogonalLoop=1;jettySize=auto;html=1;fontSize=12;entryX=0.5;entryY=0;entryDx=0;entryDy=0;" parent="WIyWlLk6GJQsqaUBKTNV-1" source="p6B5cSZv_JR1WM5m22Rt-100" edge="1">
          <mxGeometry relative="1" as="geometry">
            <mxPoint x="1150" y="110" as="targetPoint" />
          </mxGeometry>
        </mxCell>
        <mxCell id="p6B5cSZv_JR1WM5m22Rt-100" value="A contributor A delegates contributor B for future resolutions&amp;nbsp;" style="rounded=1;whiteSpace=wrap;html=1;fontSize=12;glass=0;strokeWidth=1;shadow=0;fillColor=#d5e8d4;strokeColor=#82b366;" parent="WIyWlLk6GJQsqaUBKTNV-1" vertex="1">
          <mxGeometry x="1078" y="-60" width="144" height="80" as="geometry" />
        </mxCell>
        <mxCell id="p6B5cSZv_JR1WM5m22Rt-131" value="B voting power - A voting power is added to the resolution vote decided by B" style="whiteSpace=wrap;html=1;rounded=1;glass=0;strokeWidth=1;shadow=0;" parent="WIyWlLk6GJQsqaUBKTNV-1" vertex="1">
          <mxGeometry x="1314" y="625" width="120" height="60" as="geometry" />
        </mxCell>
        <mxCell id="7JPFYaJkHymQc1CVauYX-3" style="edgeStyle=orthogonalEdgeStyle;rounded=0;orthogonalLoop=1;jettySize=auto;html=1;entryX=0;entryY=0;entryDx=0;entryDy=0;fontSize=12;" edge="1" parent="WIyWlLk6GJQsqaUBKTNV-1" source="7JPFYaJkHymQc1CVauYX-0" target="p6B5cSZv_JR1WM5m22Rt-25">
          <mxGeometry relative="1" as="geometry">
            <Array as="points">
              <mxPoint x="412" y="730" />
              <mxPoint x="598" y="730" />
            </Array>
          </mxGeometry>
        </mxCell>
        <mxCell id="7JPFYaJkHymQc1CVauYX-0" value="Contributor&#39;s voting power counts as NO vote if no previous votes were given" style="rounded=1;whiteSpace=wrap;html=1;fontSize=12;glass=0;strokeWidth=1;shadow=0;" vertex="1" parent="WIyWlLk6GJQsqaUBKTNV-1">
          <mxGeometry x="344" y="620" width="136" height="70" as="geometry" />
        </mxCell>
      </root>
    </mxGraphModel>
  </diagram>
</mxfile>
